<!DOCTYPE svg PUBLIC "-//W3C//DTD SVG 20010904//EN" "http://www.w3.org/TR/2001/REC-SVG-20010904/DTD/svg10.dtd">
<svg version="1.0" xmlns="http://www.w3.org/2000/svg" width="1000px" height="287px" viewBox="0 0 10000 2870" preserveAspectRatio="xMidYMid meet">
<g id="layer101" fill="#ff5656" stroke="none">
 <path d="M191 2707 c-52 -26 -44 -72 48 -292 128 -302 283 -515 423 -580 105 -49 218 -27 306 58 67 65 86 109 87 197 0 94 -24 147 -108 237 -103 110 -305 228 -570 332 -158 63 -158 63 -186 48z m277 -234 c178 -81 356 -201 417 -280 61 -80 56 -135 -20 -201 -42 -38 -72 -47 -122 -37 -57 10 -173 134 -250 265 -51 87 -143 277 -143 296 0 8 33 -4 118 -43z"/>
 <path d="M1220 2579 c-58 -23 -55 -72 10 -149 103 -124 183 -303 196 -437 l5 -58 -88 -55 c-143 -90 -293 -250 -398 -425 -9 -15 -17 -16 -75 -5 -85 14 -180 45 -255 83 -63 31 -178 111 -209 146 -27 30 -89 29 -110 -1 -24 -34 -20 -54 25 -137 217 -397 518 -682 778 -736 61 -13 77 -21 98 -48 15 -18 72 -77 128 -133 107 -106 238 -200 364 -263 212 -106 511 -184 746 -196 55 -3 142 -8 194 -10 l94 -6 -6 183 c-6 198 -22 312 -66 484 -80 306 -196 522 -385 720 -52 55 -114 115 -139 134 -39 31 -45 41 -54 95 -24 137 -98 268 -230 406 -127 134 -345 296 -518 387 -65 35 -68 35 -105 21z m345 -348 c143 -109 270 -251 329 -368 l26 -52 -83 39 c-45 21 -124 51 -174 66 -77 24 -93 32 -93 49 0 42 -39 204 -63 263 -27 68 -27 68 58 3z m85 -458 c313 -102 588 -347 748 -669 102 -203 182 -537 182 -754 l0 -60 -77 6 c-456 32 -804 167 -1067 414 -182 171 -291 348 -350 569 -23 86 -23 90 -6 127 46 104 296 354 392 394 29 12 84 4 178 -27z m-876 -444 c45 -10 98 -19 119 -19 21 0 39 -5 41 -12 48 -158 64 -204 92 -262 19 -37 34 -70 34 -72 0 -9 -73 27 -124 61 -100 66 -263 233 -331 338 l-18 28 53 -21 c30 -12 90 -30 134 -41z"/>
 <path d="M1767 1291 c-76 -31 -132 -83 -169 -158 -28 -58 -33 -77 -33 -143 1 -129 64 -233 177 -290 52 -26 72 -30 138 -30 101 0 158 21 224 81 75 68 101 129 101 239 0 73 -4 93 -28 142 -31 62 -84 116 -149 149 -61 32 -194 37 -261 10z m220 -146 c89 -59 110 -192 41 -271 -74 -84 -182 -94 -262 -23 -116 102 -65 286 89 319 35 7 101 -5 132 -25z"/>
 <path d="M5890 2235 c0 -3 36 -82 80 -176 l79 -170 -174 -400 c-96 -220 -175 -402 -175 -404 0 -8 214 -5 226 3 6 4 18 21 26 37 14 27 186 444 202 489 3 10 8 17 10 15 1 -2 47 -119 101 -259 54 -140 105 -263 113 -272 13 -15 32 -18 120 -18 79 0 103 3 99 13 -80 195 -481 1117 -492 1129 -12 15 -32 18 -115 18 -55 0 -100 -2 -100 -5z"/>
 <path d="M9050 1660 l0 -580 84 0 c89 0 116 12 116 50 0 49 10 50 71 5 78 -58 117 -70 219 -70 75 0 91 4 138 30 127 69 186 197 186 405 0 167 -33 267 -121 361 -64 68 -136 101 -232 107 -87 5 -142 -7 -195 -43 -20 -14 -39 -25 -41 -25 -3 0 -5 77 -5 170 l0 170 -110 0 -110 0 0 -580z m457 129 c45 -17 91 -68 110 -123 13 -37 18 -81 18 -161 0 -126 -16 -183 -65 -230 -25 -24 -41 -30 -94 -33 -73 -5 -110 10 -168 66 l-38 36 0 189 0 188 28 26 c15 14 41 32 57 39 36 16 114 18 152 3z"/>
 <path d="M6882 1950 c-85 -22 -158 -60 -214 -110 l-40 -35 38 -62 c58 -93 87 -99 172 -41 76 53 131 71 207 71 115 0 184 -49 200 -143 12 -71 -33 -135 -119 -169 -28 -11 -89 -32 -136 -46 -164 -51 -239 -104 -282 -199 -19 -42 -23 -68 -23 -146 0 -84 3 -102 28 -151 34 -70 110 -142 185 -177 47 -21 76 -26 163 -30 59 -3 129 1 159 7 61 13 162 59 204 94 l28 23 -35 71 c-47 93 -60 96 -169 41 -73 -38 -90 -42 -153 -43 -116 0 -188 54 -188 144 0 74 50 112 223 172 145 49 194 73 245 120 65 60 87 108 93 201 12 203 -87 350 -277 408 -82 26 -210 26 -309 0z"/>
 <path d="M3380 1340 l0 -620 248 0 c341 0 439 24 541 129 135 138 131 411 -8 550 -85 85 -190 119 -398 128 l-143 6 0 214 0 213 -120 0 -120 0 0 -620z m533 -29 c61 -29 94 -74 109 -145 22 -104 -18 -191 -106 -232 -45 -21 -66 -24 -173 -24 l-123 0 0 216 0 216 123 -4 c102 -3 130 -8 170 -27z"/>
 <path d="M4440 1520 l0 -440 110 0 110 0 0 440 0 440 -110 0 -110 0 0 -440z"/>
 <path d="M4796 1948 c4 -7 71 -107 148 -223 76 -115 139 -214 139 -220 0 -5 -61 -101 -136 -212 -76 -111 -137 -204 -137 -207 0 -3 54 -6 119 -6 140 0 118 -17 238 177 64 104 79 122 88 109 53 -89 166 -261 177 -273 11 -10 40 -13 126 -11 l112 3 -136 195 c-75 107 -138 201 -141 208 -3 7 61 113 141 235 80 123 146 227 146 230 0 4 -51 7 -114 7 -94 0 -117 -3 -134 -17 -11 -10 -61 -84 -110 -165 l-89 -147 -93 147 c-52 80 -102 154 -112 164 -15 15 -35 18 -129 18 -85 0 -109 -3 -103 -12z"/>
 <path d="M7630 1325 l0 -635 110 0 110 0 0 230 c0 127 2 230 4 230 3 0 25 -13 49 -30 60 -40 156 -64 226 -56 147 17 236 105 261 257 5 35 10 193 10 352 l0 287 -109 0 -110 0 -3 -307 c-3 -270 -5 -312 -21 -343 -44 -90 -164 -96 -274 -13 l-33 24 0 320 0 319 -110 0 -110 0 0 -635z"/>
 <path d="M8610 1520 l0 -440 110 0 110 0 0 440 0 440 -110 0 -110 0 0 -440z"/>
 <path d="M4472 940 c-111 -68 -59 -250 71 -250 77 0 135 48 144 119 7 49 -20 107 -61 132 -41 25 -112 25 -154 -1z"/>
 <path d="M8643 940 c-82 -50 -83 -179 -1 -230 46 -29 127 -23 164 11 54 50 67 104 38 165 -33 69 -133 96 -201 54z"/>
 </g>
<g id="layer102" fill="#24e3ff" stroke="none">
 <path d="M5890 2235 c0 -3 36 -82 80 -176 l79 -170 -174 -400 c-96 -220 -175 -402 -175 -404 0 -8 214 -5 226 3 6 4 18 21 26 37 14 27 186 444 202 489 3 10 8 17 10 15 1 -2 47 -119 101 -259 54 -140 105 -263 113 -272 13 -15 32 -18 120 -18 79 0 103 3 99 13 -80 195 -481 1117 -492 1129 -12 15 -32 18 -115 18 -55 0 -100 -2 -100 -5z"/>
 <path d="M9050 1660 l0 -580 84 0 c89 0 116 12 116 50 0 49 10 50 71 5 78 -58 117 -70 219 -70 75 0 91 4 138 30 127 69 186 197 186 405 0 167 -33 267 -121 361 -64 68 -136 101 -232 107 -87 5 -142 -7 -195 -43 -20 -14 -39 -25 -41 -25 -3 0 -5 77 -5 170 l0 170 -110 0 -110 0 0 -580z m457 129 c45 -17 91 -68 110 -123 13 -37 18 -81 18 -161 0 -126 -16 -183 -65 -230 -25 -24 -41 -30 -94 -33 -73 -5 -110 10 -168 66 l-38 36 0 189 0 188 28 26 c15 14 41 32 57 39 36 16 114 18 152 3z"/>
 <path d="M6882 1950 c-85 -22 -158 -60 -214 -110 l-40 -35 38 -62 c58 -93 87 -99 172 -41 76 53 131 71 207 71 115 0 184 -49 200 -143 12 -71 -33 -135 -119 -169 -28 -11 -89 -32 -136 -46 -164 -51 -239 -104 -282 -199 -19 -42 -23 -68 -23 -146 0 -84 3 -102 28 -151 34 -70 110 -142 185 -177 47 -21 76 -26 163 -30 59 -3 129 1 159 7 61 13 162 59 204 94 l28 23 -35 71 c-47 93 -60 96 -169 41 -73 -38 -90 -42 -153 -43 -116 0 -188 54 -188 144 0 74 50 112 223 172 145 49 194 73 245 120 65 60 87 108 93 201 12 203 -87 350 -277 408 -82 26 -210 26 -309 0z"/>
 <path d="M3380 1340 l0 -620 248 0 c341 0 439 24 541 129 135 138 131 411 -8 550 -85 85 -190 119 -398 128 l-143 6 0 214 0 213 -120 0 -120 0 0 -620z m533 -29 c61 -29 94 -74 109 -145 22 -104 -18 -191 -106 -232 -45 -21 -66 -24 -173 -24 l-123 0 0 216 0 216 123 -4 c102 -3 130 -8 170 -27z"/>
 <path d="M4440 1520 l0 -440 110 0 110 0 0 440 0 440 -110 0 -110 0 0 -440z"/>
 <path d="M4796 1948 c4 -7 71 -107 148 -223 76 -115 139 -214 139 -220 0 -5 -61 -101 -136 -212 -76 -111 -137 -204 -137 -207 0 -3 54 -6 119 -6 140 0 118 -17 238 177 64 104 79 122 88 109 53 -89 166 -261 177 -273 11 -10 40 -13 126 -11 l112 3 -136 195 c-75 107 -138 201 -141 208 -3 7 61 113 141 235 80 123 146 227 146 230 0 4 -51 7 -114 7 -94 0 -117 -3 -134 -17 -11 -10 -61 -84 -110 -165 l-89 -147 -93 147 c-52 80 -102 154 -112 164 -15 15 -35 18 -129 18 -85 0 -109 -3 -103 -12z"/>
 <path d="M7630 1325 l0 -635 110 0 110 0 0 230 c0 127 2 230 4 230 3 0 25 -13 49 -30 60 -40 156 -64 226 -56 147 17 236 105 261 257 5 35 10 193 10 352 l0 287 -109 0 -110 0 -3 -307 c-3 -270 -5 -312 -21 -343 -44 -90 -164 -96 -274 -13 l-33 24 0 320 0 319 -110 0 -110 0 0 -635z"/>
 <path d="M8610 1520 l0 -440 110 0 110 0 0 440 0 440 -110 0 -110 0 0 -440z"/>
 <path d="M4472 940 c-111 -68 -59 -250 71 -250 77 0 135 48 144 119 7 49 -20 107 -61 132 -41 25 -112 25 -154 -1z"/>
 <path d="M8643 940 c-82 -50 -83 -179 -1 -230 46 -29 127 -23 164 11 54 50 67 104 38 165 -33 69 -133 96 -201 54z"/>
 </g>

</svg>