<?xml version="1.0" standalone="no"?>
<!DOCTYPE svg PUBLIC "-//W3C//DTD SVG 20010904//EN"
 "http://www.w3.org/TR/2001/REC-SVG-20010904/DTD/svg10.dtd">
<svg version="1.0" xmlns="http://www.w3.org/2000/svg"
 width="700.000000pt" height="700.000000pt" viewBox="0 0 700.000000 700.000000"
 preserveAspectRatio="xMidYMid meet">
<metadata>
Created by potrace 1.14, written by Peter Selinger 2001-2017
</metadata>
<g transform="translate(0.000000,700.000000) scale(0.100000,-0.100000)"
fill="#000000" stroke="none">
<path d="M6747 6803 c-4 -3 -89 -8 -287 -18 -63 -3 -151 -8 -195 -10 -44 -3
-125 -7 -180 -10 -172 -9 -284 -21 -470 -50 -171 -28 -225 -39 -405 -82 -80
-19 -152 -36 -160 -38 -125 -29 -530 -165 -645 -215 -11 -5 -72 -32 -135 -60
-164 -72 -507 -266 -518 -292 -2 -5 -8 -8 -13 -8 -6 0 -15 -5 -22 -10 -7 -6
-46 -35 -87 -66 -127 -93 -229 -175 -320 -259 -77 -71 -318 -315 -408 -414
-93 -100 -143 -128 -285 -156 -130 -27 -332 -106 -473 -187 -94 -54 -245 -152
-285 -186 -13 -11 -67 -55 -119 -97 -113 -92 -384 -363 -492 -491 -250 -296
-500 -671 -669 -1001 -68 -134 -80 -192 -51 -249 35 -69 84 -97 164 -95 64 2
103 21 173 86 151 139 432 318 630 402 204 85 537 173 659 173 l46 0 57 -87
c192 -300 415 -564 668 -793 94 -85 253 -201 407 -296 l141 -88 -7 -85 c-19
-246 -83 -463 -220 -741 -62 -125 -201 -348 -254 -406 -96 -105 -165 -227
-165 -293 -1 -61 23 -94 88 -126 104 -51 141 -41 430 124 250 143 663 436 869
616 402 352 643 643 786 948 38 80 103 264 114 317 43 224 46 231 140 312 148
129 370 351 503 503 235 269 462 624 597 938 9 20 23 54 32 74 106 238 263
764 309 1033 3 19 10 53 15 75 5 22 11 60 15 85 3 25 8 56 10 70 2 14 6 45 10
70 3 25 7 61 10 80 16 125 29 352 40 700 4 113 8 226 9 253 2 26 0 47 -3 48
-30 4 -52 5 -54 2z m-312 -529 c-2 -91 -6 -191 -9 -222 -4 -32 -9 -82 -11
-112 -3 -30 -7 -66 -10 -80 -2 -14 -7 -45 -10 -70 -17 -128 -69 -384 -111
-550 -14 -52 -26 -102 -28 -111 -31 -129 -132 -425 -201 -589 -374 -892 -1127
-1616 -1975 -1903 -221 -74 -316 -95 -416 -93 -72 1 -86 4 -138 36 -143 86
-292 213 -511 434 -305 308 -463 526 -472 651 -3 32 5 86 22 150 14 55 27 108
30 118 18 77 117 344 163 442 166 353 341 596 651 905 129 128 319 292 417
360 294 204 501 318 790 436 175 71 448 160 614 199 31 7 213 47 234 51 11 2
32 6 46 9 14 2 41 7 60 10 19 3 42 8 50 10 8 2 35 7 60 10 49 6 179 24 220 30
14 2 57 7 95 10 39 4 86 8 105 11 19 2 80 7 135 10 55 3 101 7 102 8 1 0 24 2
51 4 l50 2 -3 -166z m-3939 -1616 c-13 -29 -48 -102 -76 -163 -46 -96 -195
-520 -215 -613 -9 -43 -40 -62 -112 -67 -194 -14 -461 -79 -683 -165 -56 -22
-104 -40 -106 -40 -3 0 22 40 56 89 197 288 605 698 855 860 80 52 271 151
291 151 10 0 8 -14 -10 -52z m2183 -2245 c-90 -169 -182 -303 -314 -459 -63
-75 -294 -305 -364 -364 -30 -25 -60 -50 -67 -57 -32 -33 -281 -213 -293 -213
-17 0 -11 24 34 145 57 155 129 449 160 657 8 49 35 65 215 123 238 78 370
130 590 234 47 22 86 38 88 36 2 -2 -20 -48 -49 -102z"/>
<path d="M4567 5464 c-1 -1 -31 -4 -67 -7 -195 -16 -447 -186 -560 -377 -34
-55 -106 -230 -95 -230 1 0 -4 -26 -11 -57 -19 -80 -13 -312 10 -378 109 -318
340 -534 621 -583 54 -9 298 -9 360 1 100 16 173 44 265 102 179 114 318 302
367 496 3 13 7 92 9 174 6 284 -40 422 -197 590 -152 162 -310 244 -499 261
-69 5 -199 11 -203 8z m229 -375 c204 -76 329 -258 319 -467 -12 -258 -182
-429 -446 -449 -177 -13 -363 97 -443 262 -103 210 -44 444 149 590 121 91
282 115 421 64z"/>
<path d="M1660 2518 c-73 -18 -137 -41 -192 -68 -131 -65 -312 -225 -452 -400
-77 -96 -250 -355 -318 -475 -84 -148 -226 -437 -283 -577 -15 -35 -32 -76
-40 -93 -28 -65 -124 -314 -131 -341 -4 -16 -11 -35 -17 -41 -5 -7 -7 -13 -3
-13 3 0 1 -12 -5 -26 -11 -29 -20 -81 -24 -132 -4 -55 30 -108 86 -136 70 -35
81 -32 419 101 734 290 1211 562 1509 862 208 210 288 372 295 595 6 227 -45
358 -198 512 -112 112 -215 177 -346 216 -72 22 -241 31 -300 16z m259 -390
c69 -34 195 -163 227 -232 62 -136 12 -270 -166 -446 -210 -208 -657 -489
-1050 -659 -193 -84 -240 -100 -240 -82 0 31 57 159 176 401 112 225 160 314
237 435 167 263 397 513 537 585 83 42 189 41 279 -2z"/>
</g>
</svg>
